<?xml version="1.0" encoding="UTF-8" standalone="no"?>
<!-- Created with Inkscape (http://www.inkscape.org/) -->

<svg
   version="1.1"
   id="svg1"
   width="158.59612"
   height="152.66667"
   viewBox="0 0 158.59612 152.66667"
   xmlns="http://www.w3.org/2000/svg"
   xmlns:svg="http://www.w3.org/2000/svg">
  <defs
     id="defs1" />
  <g
     id="g1"
     transform="translate(-6.9236597,-16)">
    <path
       style="fill:#000000"
       d="m 32.630883,168.22222 c -0.766706,-0.7667 -0.483745,-4.69394 0.388889,-5.39742 0.458334,-0.36949 2.898752,-0.79802 5.423153,-0.95228 3.931695,-0.24027 4.804029,-0.52952 6.083741,-2.01727 1.302154,-1.51385 3.2318,-6.73563 4.688904,-12.68858 l 0.448746,-1.83334 H 29.640431 9.6165463 l -1.396293,-1.7751 c -1.387913,-1.76444 -1.395206,-2.0244 -1.215054,-43.30981 0.169492,-38.842174 0.258403,-41.611877 1.371527,-42.724904 1.119581,-1.119484 4.3668567,-1.201321 54.6666647,-1.377685 29.412004,-0.103126 54.130409,-0.02768 54.929769,0.167668 3.7086,0.906288 3.54662,-1.132082 3.54662,44.630791 0,40.01896 -0.0625,42.23898 -1.21916,43.28572 -1.09614,0.99199 -4.22416,1.10332 -31.000005,1.10332 -19.409453,0 -29.780844,0.23217 -29.780844,0.66667 0,0.36667 0.075,0.6821 0.166667,0.70097 0.09167,0.0189 4.794903,0.85519 10.451637,1.85849 l 10.28497,1.82418 1.3817,4.12553 c 1.98771,5.93502 3.28607,6.98714 9.18894,7.44623 l 4.85942,0.37793 0.20319,3.16667 0.2032,3.16667 H 64.66741 c -17.375645,0 -31.792082,-0.2 -32.036527,-0.44445 z M 110.51978,98.666668 V 67.666667 L 64.353105,67.495436 18.186439,67.324206 v 31.342462 31.342462 l 46.166666,-0.17123 46.166675,-0.17123 z M 27.964217,118.88889 c -0.244445,-0.24445 -0.444445,-6.32537 -0.444445,-13.51317 V 92.306998 l 6.198963,-6.17319 6.198963,-6.17318 9.301037,0.18635 9.301037,0.18636 0.177362,18.58547 c 0.12554,13.155072 -0.0444,18.852682 -0.58163,19.499992 -0.600485,0.72354 -3.781707,0.91453 -15.232917,0.91453 -7.960659,0 -14.673926,-0.2 -14.91837,-0.44444 z M 54.853105,99.333338 v -16 h -6.666667 c -5.593645,0 -6.666666,-0.16729 -6.666666,-1.03935 0,-0.57164 -0.3,-0.85393 -0.666667,-0.62732 -0.366666,0.22661 -0.666666,2.94432 -0.666666,6.03934 v 5.62733 l -5.833333,0.0773 c -3.208334,0.0425 -5.308334,0.21453 -4.666667,0.38221 1.049514,0.27427 1.166667,1.37108 1.166667,10.922672 v 10.61778 h 11.999999 12 z M 34.630883,110.22222 c -0.955715,-0.95571 -0.355875,-1.55555 1.555556,-1.55555 1.333333,0 2,0.33333 2,1 0,1.00903 -2.682874,1.42823 -3.555556,0.55555 z m 5.555556,-0.55555 c 0,-0.81046 1.074074,-1 5.666666,-1 4.592593,0 5.666667,0.18954 5.666667,1 0,0.81045 -1.074074,1 -5.666667,1 -4.592592,0 -5.666666,-0.18955 -5.666666,-1 z m -5.527434,-4.08299 C 33.668489,104.59316 34.261392,104 36.241994,104 c 1.346369,0 1.960871,0.28751 1.781115,0.83333 -0.311296,0.94525 -2.648013,1.46644 -3.364104,0.75035 z M 40.186439,105 c 0,-0.81046 1.074074,-1 5.666666,-1 4.592593,0 5.666667,0.18954 5.666667,1 0,0.81046 -1.074074,1 -5.666667,1 -4.592592,0 -5.666666,-0.18954 -5.666666,-1 z m -5.669577,-5.004712 c -0.521501,-0.8438 1.334432,-1.59988 2.669577,-1.08754 0.55,0.21106 1,0.69315 1,1.07133 0,0.885832 -3.123594,0.899632 -3.669577,0.0162 z m 5.669577,-0.32862 c 0,-0.81046 1.074074,-1 5.666666,-1 4.592593,0 5.666667,0.18954 5.666667,1 0,0.810452 -1.074074,1.000002 -5.666667,1.000002 -4.592592,0 -5.666666,-0.18955 -5.666666,-1.000002 z m 4,-7.33333 c 0,-0.76768 0.851851,-1 3.666666,-1 2.814815,0 3.666667,0.23232 3.666667,1 0,0.76767 -0.851852,1 -3.666667,1 -2.814815,0 -3.666666,-0.23233 -3.666666,-1 z m 25.742899,24.624922 c -0.225262,-0.58702 -0.409567,-6.34953 -0.409567,-12.80558 V 92.414418 l 5.873874,-5.87388 5.873874,-5.87387 h 6.823916 6.82392 l -1.19779,1.62733 c -1.05518,1.43358 -1.79312,1.65187 -6.19779,1.83334 l -5,0.206 -0.20236,4.31604 c -0.11301,2.41043 -0.55453,4.53993 -1,4.82313 -0.438704,0.27889 -2.522644,0.51167 -4.630977,0.51728 l -3.833334,0.0102 v 10.333332 10.33334 h 11.641651 11.64165 l 0.19169,-6.08747 c 0.17279,-5.4876 0.34153,-6.18676 1.71231,-7.09501 l 1.52063,-1.00754 -0.1873,8.59501 -0.18729,8.59501 -14.42377,0.17945 c -12.716276,0.15821 -14.472255,0.0531 -14.833337,-0.88786 z M 81.0833,105.5 c 0.176025,-0.64167 0.515932,-2.36667 0.755345,-3.83333 0.373,-2.285012 1.59643,-3.835482 8.54821,-10.833332 4.4621,-4.49167 8.58153,-8.16667 9.15428,-8.16667 0.572765,0 2.180635,1.16671 3.573065,2.59268 2.07613,2.12615 2.40835,2.81592 1.84628,3.83333 -0.37697,0.68236 -4.10543,4.63599 -8.285475,8.78585 -6.0253,5.981782 -8.14107,7.670662 -10.21099,8.150762 -4.1982,0.97372 -5.751124,0.82096 -5.380715,-0.52929 z m 57.45869,-41 C 135.60006,53.87312 127.58793,45.882914 117.26815,43.284362 115.57321,42.857572 114.18645,42.279609 114.18645,42 c 0,-0.279609 1.38676,-0.857572 3.0817,-1.284362 10.15442,-2.556912 18.25363,-10.519303 21.24114,-20.882305 C 139.1171,17.725 139.71899,16 139.84684,16 c 0.12785,0 0.74804,1.575 1.37821,3.5 1.63552,4.996069 3.95627,9.400396 6.46016,12.260083 3.03013,3.460719 9.29293,7.35229 13.92291,8.651396 2.15141,0.603655 3.91166,1.303236 3.91166,1.554623 0,0.251388 -1.725,0.994087 -3.83333,1.650443 -4.68338,1.458006 -10.44874,4.865024 -13.2615,7.836838 -2.7936,2.951562 -5.88696,8.672004 -7.23528,13.37995 -0.60381,2.108334 -1.18702,3.833334 -1.29601,3.833334 -0.109,0 -0.71725,-1.875 -1.35167,-4.166667 z"
       id="path1" />
  </g>
</svg>
