<?xml version="1.0" encoding="UTF-8" standalone="no"?>
<!-- Created with Inkscape (http://www.inkscape.org/) -->

<svg
   version="1.1"
   id="svg1"
   width="155.53249"
   height="110.18558"
   viewBox="0 0 155.53249 110.18558"
   xmlns="http://www.w3.org/2000/svg"
   xmlns:svg="http://www.w3.org/2000/svg">
  <defs
     id="defs1" />
  <g
     id="g1"
     transform="translate(-7.9999999,-14.557594)">
    <path
       style="fill:#000000"
       d="m 51.333332,119.74317 v -5 h 45.999998 46 v 5 5 h -46 -45.999998 z m 7.5,-11.81366 c -0.825,-0.39789 -1.5,-0.94415 -1.5,-1.21393 0,-0.26977 4.125,-3.79615 9.166666,-7.836392 11.570954,-9.27261 11.26589,-8.9728 15.860008,-15.58708 5.140778,-7.40133 6.70056,-9.02469 10.639991,-11.07369 2.7994,-1.45604 4.440701,-1.77903 10.246593,-2.01641 7.8851,-0.32239 15.78057,0.74426 19.92423,2.69168 7.09087,3.33254 10.7249,12.20888 11.8831,29.025192 l 0.47002,6.82429 h -4.64936 -4.64935 l -0.75008,-7.65594 c -0.41255,-4.210762 -1.13823,-8.335762 -1.61262,-9.166662 -0.74248,-1.30046 -0.88835,-0.23484 -1.04801,7.65593 l -0.18548,9.166672 h -16.7423 -16.742293 l 0.469593,-8.16667 0.469594,-8.166672 -3.208485,3.08438 c -3.828762,3.68066 -11.27808,9.106282 -15.807777,11.513402 -3.538379,1.88032 -9.34024,2.31752 -12.23404,0.9219 z M 9.6363634,95.106798 c -1.6358863,-1.63588 -1.6363636,-1.64054 -1.6363636,-15.96863 0,-9.29773 0.2666293,-14.917451 0.7590382,-15.998171 0.4174711,-0.916249 1.767471,-2.14444 3,-2.729314 L 14,59.347277 v -5.250904 c 0,-4.620469 0.198987,-5.487388 1.657363,-7.220569 1.036562,-1.231884 2.770283,-2.249901 4.628546,-2.717817 4.347919,-1.094818 35.9923,-1.019498 36.911323,0.08786 0.381605,0.459806 0.793338,1.884806 0.914963,3.166667 0.206001,2.171137 0.403654,2.353471 2.887803,2.66399 l 2.666667,0.333333 v 15.657536 c 0,14.381905 -0.09505,15.675845 -1.166667,15.882215 -1.082661,0.2085 -1.166666,-0.83491 -1.166666,-14.490869 V 52.743167 h -1.655021 -1.65502 l -0.178313,16.500001 -0.178313,16.5 -1.833333,0.21095 -1.833334,0.21094 V 66.787448 47.409834 H 37.815003 c -13.621492,0 -16.42144,0.165613 -17.677819,1.045615 -0.821054,0.575088 -1.3201,1.325088 -1.108993,1.666667 0.218192,0.353042 6.68599,0.621052 14.987697,0.621052 13.75611,0 14.643927,0.07485 15.293988,1.289505 0.933717,1.744667 0.933717,37.676325 0,39.420985 -0.53949,1.00805 -1.40978,1.28951 -3.987245,1.28951 H 42.025507 L 41.846086,77.909828 41.666665,63.0765 28.738789,62.895108 c -10.753661,-0.150887 -13.192276,-0.0082 -14.499999,0.848701 -2.308518,1.5126 -1.923716,2.332691 1.094543,2.332691 h 2.666666 v 5.999998 c 0,3.3 0.177682,6 0.394848,6 0.217166,0 1.151235,-0.59497 2.075709,-1.32217 1.676131,-1.31844 1.685595,-1.31844 3.361726,0 0.924474,0.7272 1.940405,1.32217 2.257623,1.32217 0.317218,0 0.576761,-2.7 0.576761,-6 V 66.0765 h 4.533333 c 2.637037,0 4.867974,0.334641 5.333333,0.8 0.571891,0.571891 0.8,4.828598 0.8,14.928678 0,12.2685 -0.138837,14.18195 -1.054525,14.53333 -0.579988,0.22256 -6.443625,0.40466 -13.030302,0.40466 -11.826135,0 -11.996225,-0.0204 -13.6121416,-1.63637 z M 99.614265,62.812279 c -5.095895,-2.31444 -7.354154,-7.15529 -6.769955,-14.512215 0.446784,-5.626421 2.616763,-9.450375 6.463614,-11.390229 4.891856,-2.466822 11.052886,-1.885963 14.613356,1.377741 5.31852,4.87523 5.50144,17.991528 0.31514,22.596832 -3.62369,3.217742 -9.94662,4.051394 -14.622155,1.927871 z m 42.430855,-4.895431 c -0.0983,-2.52664 -3.64077,-9.950635 -6.05895,-12.697827 -2.44011,-2.772109 -9.44748,-7.14252 -11.45207,-7.14252 -0.52026,0 -1.49531,-0.401717 -2.16678,-0.892705 -1.10828,-0.810395 -0.88952,-0.998542 2.37258,-2.040575 8.01402,-2.559968 13.47099,-8.099924 16.40993,-16.659507 l 1.34804,-3.926121 1.16647,3.592788 c 2.95316,9.095906 7.84329,13.972695 17.32786,17.280593 2.09489,0.730625 2.96813,1.308459 2.34113,1.549154 -0.55,0.211136 -2.78533,1.038321 -4.9674,1.838189 -5.61398,2.057882 -11.6687,8.09476 -13.63167,13.591517 -2.07824,5.81952 -2.6328,6.955187 -2.68914,5.507014 z"
       id="path1" />
  </g>
</svg>
