<?xml version="1.0" encoding="UTF-8" standalone="no"?>
<!-- Created with Inkscape (http://www.inkscape.org/) -->

<svg
   width="57.827202mm"
   height="56.425117mm"
   viewBox="0 0 57.827202 56.425117"
   version="1.1"
   id="svg1"
   xml:space="preserve"
   xmlns="http://www.w3.org/2000/svg"
   xmlns:svg="http://www.w3.org/2000/svg"><defs
     id="defs1" /><g
     id="layer1"
     transform="translate(-76.231241,-102.33416)"><path
       style="fill:#000000"
       d="m 102.26871,158.7508 c -0.0579,-0.14552 -0.70436,-2.04775 -1.43652,-4.22718 -2.252122,-6.70396 -3.778449,-9.38328 -7.389217,-12.97106 -3.673806,-3.65042 -6.398018,-5.2022 -13.022493,-7.41794 -2.304039,-0.77065 -4.189196,-1.44232 -4.189236,-1.4926 -4.1e-5,-0.0503 1.646957,-0.6366 3.659995,-1.30293 4.42109,-1.46343 6.28358,-2.24559 8.402664,-3.52873 4.430634,-2.68282 7.866605,-6.42621 10.21736,-11.1315 0.591043,-1.18304 1.504787,-3.56641 2.347317,-6.12269 0.75876,-2.30209 1.44031,-4.12486 1.51456,-4.05061 0.0742,0.0742 0.7688,2.01914 1.54344,4.32198 2.16296,6.43002 3.88881,9.4704 7.32813,12.90972 3.46511,3.46511 6.46407,5.15898 13.0968,7.39731 2.40095,0.81024 4.24629,1.52061 4.10077,1.57859 -0.14552,0.058 -2.03906,0.70154 -4.20788,1.43012 -2.16881,0.72858 -4.62825,1.64567 -5.46543,2.03798 -2.53855,1.18961 -5.3676,3.1963 -7.43641,5.27478 -3.54496,3.56151 -5.28137,6.64155 -7.56243,13.4142 -0.76785,2.27983 -1.44349,4.02608 -1.50142,3.88056 z m 18.26096,-32.80982 c -0.17749,-0.29185 -0.46112,-0.98638 -0.63029,-1.5434 -0.30394,-1.00075 -0.3203,-1.01771 -1.37979,-1.43055 l -1.07221,-0.4178 -1.24942,0.56403 c -0.68719,0.31022 -1.34339,0.60392 -1.45824,0.65268 -0.22221,0.0943 -1.72786,-1.20292 -2.01168,-1.73324 -0.12711,-0.23751 -0.0148,-0.62212 0.45245,-1.55005 0.34183,-0.67878 0.62151,-1.34532 0.62151,-1.48119 0,-0.13588 -0.1939,-0.6855 -0.4309,-1.2214 -0.42263,-0.95564 -0.45398,-0.98191 -1.6316,-1.36767 -1.67449,-0.54852 -1.81861,-0.70783 -1.81535,-2.00663 0.001,-0.5913 0.0724,-1.18511 0.15754,-1.31959 0.0852,-0.13447 0.80447,-0.49166 1.59847,-0.79375 l 1.44363,-0.54925 0.4048,-1.00733 c 0.22265,-0.55404 0.37803,-1.03412 0.34529,-1.06686 -0.0327,-0.0327 -0.34022,-0.67548 -0.6833,-1.42832 l -0.62378,-1.36879 0.90777,-0.95984 c 0.49928,-0.52791 1.00708,-0.95983 1.12846,-0.95983 0.12138,0 0.80803,0.27892 1.52588,0.61983 l 1.30519,0.61983 1.05027,-0.42458 1.05027,-0.42458 0.53015,-1.47407 0.53015,-1.47407 1.29415,-0.0521 c 0.77407,-0.0312 1.38993,0.0273 1.53249,0.14564 0.13108,0.10878 0.41096,0.72757 0.62197,1.37507 0.45281,1.38951 0.50619,1.44981 1.71203,1.93388 l 0.92927,0.37305 1.27061,-0.60892 c 0.69884,-0.33491 1.3949,-0.60893 1.54681,-0.60893 0.37351,0 1.93862,1.6105 1.93862,1.99484 0,0.16886 -0.27566,0.85442 -0.61259,1.52346 l -0.61259,1.21645 0.5062,1.1164 0.50621,1.11641 1.26651,0.43918 c 0.69658,0.24155 1.34339,0.53182 1.43736,0.64504 0.094,0.11323 0.14738,0.78639 0.1187,1.49591 l -0.0522,1.29004 -1.46388,0.53698 -1.46389,0.53698 -0.45199,0.99902 -0.452,0.99902 0.63706,1.34214 c 0.35039,0.73817 0.63706,1.45167 0.63706,1.58554 0,0.13388 -0.40749,0.64877 -0.90553,1.1442 -1.02081,1.01546 -0.96603,1.01343 -2.78299,0.10264 l -1.13088,-0.56687 -1.02029,0.45094 c -1.01768,0.44979 -1.02149,0.45434 -1.48973,1.78054 -0.25819,0.73128 -0.55004,1.42882 -0.64855,1.55009 -0.11189,0.13773 -0.63538,0.22048 -1.39483,0.22048 -1.16245,0 -1.22986,-0.0233 -1.53842,-0.53065 z m 3.32493,-8.35738 c 1.19679,-0.59177 1.85365,-1.75473 1.85365,-3.28184 0,-0.98549 -0.0779,-1.2909 -0.48657,-1.90851 -0.94888,-1.43385 -2.76006,-2.1205 -4.2747,-1.62062 -0.83431,0.27534 -2.00906,1.32158 -2.32125,2.06731 -0.33573,0.80196 -0.28997,2.30077 0.0958,3.13655 0.43963,0.95257 1.06023,1.48668 2.1741,1.87113 1.07657,0.37158 1.80499,0.30659 2.959,-0.26402 z"
       id="path1" /></g></svg>
