<?xml version="1.0" encoding="UTF-8" standalone="no"?>
<!-- Created with Inkscape (http://www.inkscape.org/) -->

<svg
   width="59.745327mm"
   height="69.318481mm"
   viewBox="0 0 59.745327 69.318481"
   version="1.1"
   id="svg1"
   xml:space="preserve"
   xmlns="http://www.w3.org/2000/svg"
   xmlns:svg="http://www.w3.org/2000/svg"><defs
     id="defs1" /><g
     id="layer1"
     transform="translate(-76.050402,-110.35431)"><path
       style="fill:#000000"
       d="m 79.030858,173.92338 -2.980455,-5.7489 0.511011,-0.42803 c 1.231313,-1.03137 5.041312,-3.43478 6.335446,-3.9965 3.788725,-1.6445 6.458189,-1.80304 13.137369,-0.78022 4.910031,0.7519 8.232511,1.11833 12.094891,1.33393 2.98817,0.1668 3.66942,0.34809 4.21038,1.12041 0.15141,0.21617 0.27529,0.69681 0.27529,1.0681 0,2.57575 -3.3336,3.87345 -9.96598,3.87954 -1.80594,0.002 -3.805411,-0.10973 -5.027081,-0.28006 -1.11566,-0.15555 -2.42535,-0.33119 -2.91042,-0.3903 -0.88191,-0.10748 -0.88193,-0.10748 -0.49866,0.23111 0.46423,0.4101 3.61154,1.34266 5.788341,1.71511 4.21345,0.72091 9.20083,0.68771 11.22239,-0.0747 2.1569,-0.81346 3.52998,-2.53407 3.80905,-4.77314 l 0.14,-1.12325 1.7938,-0.74917 c 2.48253,-1.03681 7.74165,-3.00539 8.70133,-3.25707 1.30575,-0.34243 3.04921,-0.25734 3.98226,0.19434 0.75883,0.36734 1.84421,1.5533 1.83432,2.0043 -0.005,0.21772 -20.22086,12.939 -21.92354,13.79572 -2.84222,1.43009 -4.5189,1.40344 -11.497901,-0.18276 -3.03419,-0.68962 -5.74316,-1.21086 -6.35,-1.22182 -0.95259,-0.0172 -1.48141,0.15233 -5.293075,1.69708 -2.32911,0.94392 -4.273797,1.71598 -4.321528,1.71569 -0.04773,-2.8e-4 -1.427987,-2.58752 -3.067238,-5.74942 z m 30.164382,-11.18339 c -0.058,-0.14552 -0.7338,-2.13681 -1.50176,-4.42509 -0.76796,-2.28828 -1.76927,-4.90765 -2.22512,-5.82083 -2.68811,-5.38487 -6.709771,-9.38988 -12.178691,-12.12828 -0.97594,-0.48866 -3.70785,-1.54197 -6.070918,-2.34068 l -4.296488,-1.4522 4.358462,-1.46371 c 4.757854,-1.59784 6.641824,-2.43434 8.929894,-3.96496 4.088671,-2.73515 7.027931,-6.09373 9.319821,-10.64938 0.5184,-1.03045 1.45968,-3.50582 2.26371,-5.95313 0.75698,-2.30408 1.41708,-4.18842 1.46689,-4.18742 0.0498,0.001 0.71335,1.84647 1.47454,4.10104 2.05192,6.07756 3.54106,8.91516 6.30536,12.01506 3.77319,4.23128 7.28665,6.34049 14.54007,8.72873 l 4.21473,1.38773 -4.13804,1.35196 c -6.75173,2.20588 -9.79785,3.92208 -13.49518,7.60325 -3.4571,3.44198 -5.14106,6.44748 -7.46163,13.31736 -0.7701,2.27982 -1.44765,4.02607 -1.50565,3.88055 z"
       id="path1" /></g></svg>
