<?xml version="1.0" encoding="UTF-8" standalone="no"?>
<!-- Created with Inkscape (http://www.inkscape.org/) -->

<svg
   version="1.1"
   id="svg1"
   width="176.1109"
   height="148.02235"
   viewBox="0 0 176.1109 148.02235"
   xmlns="http://www.w3.org/2000/svg"
   xmlns:svg="http://www.w3.org/2000/svg">
  <defs
     id="defs1" />
  <g
     id="g1"
     transform="translate(-1.8913168,-10.712107)">
    <path
       style="fill:#000000"
       d="m 9.5921248,142.61488 c -8.069259,-15.51337 -8.340891,-16.16794 -7.222817,-17.40543 2.426569,-2.68574 14.8716012,-10.39449 19.9080992,-12.33155 10.955238,-4.21345 16.396479,-4.34238 39.253665,-0.93017 7.7,1.14949 19.644007,2.50237 26.542237,3.00639 14.660561,1.0712 15.977351,1.58604 16.331301,6.38523 0.18391,2.49362 -0.0784,3.09014 -2.36317,5.37495 -3.092921,3.09292 -6.913311,4.31525 -16.843701,5.38913 -8.37545,0.90572 -22.550748,0.11463 -31.5,-1.75795 -1.063946,-0.22263 -1.833334,-0.0948 -1.833334,0.30472 0,1.10957 11.779313,4.56447 19.441223,5.70215 8.109931,1.20421 21.623211,1.37833 26.460371,0.34095 7.405101,-1.58811 12.617421,-6.96301 13.353031,-13.76951 l 0.41204,-3.8126 13.66667,-5.46046 c 15.51393,-6.19852 20.74879,-7.49235 25.31704,-6.25725 2.99932,0.81092 7.34963,4.54598 7.34963,6.3102 0,0.48085 -8.775,6.37068 -19.5,13.08852 -48.593421,30.43755 -45.114761,28.53406 -53.166671,29.09227 -4.39354,0.30458 -7.06199,-0.114 -22.000001,-3.45103 -11.271229,-2.5179 -17.786301,-3.67411 -19.333332,-3.43105 -1.283334,0.20164 -7.568786,2.47384 -13.967672,5.04935 -6.398886,2.5755 -11.698619,4.68273 -11.777183,4.68273 -0.07857,0 -3.915907,-7.25381 -8.5274262,-16.11959 z M 53.104928,102.12671 51.531072,100.85227 V 69.795329 38.738386 l 14.013139,-14.013139 14.013138,-14.01314 17.98686,0.177845 17.986861,0.177845 -4.16666,4.166667 -4.16667,4.166667 H 95.531069 83.864409 v 9.710494 c 0,9.369374 -0.43572,11.890205 -2.26647,13.112631 -0.40345,0.269386 -5.31206,0.494386 -10.90803,0.5 l -10.174495,0.01021 0.174496,25.833334 0.174495,25.833334 h 27.666664 27.666671 l 0.17953,-14.032011 0.17954,-14.032012 4.32046,-4.282063 4.32047,-4.282064 v 21.480742 c 0,20.591855 -0.0552,21.535914 -1.33333,22.814074 -1.2984,1.2984 -2.22223,1.33334 -35.259481,1.33334 -32.410165,0 -33.996472,-0.057 -35.500001,-1.27443 z M 154.84052,84.5678 C 152.2049,76.411921 147.23907,71.190735 139.39765,68.330807 l -4.99062,-1.820178 3.94655,-1.42901 c 5.18767,-1.878409 8.17361,-3.776671 11.1866,-7.111686 2.42621,-2.685528 4.96764,-7.616 5.96318,-11.568801 0.47951,-1.903914 0.59811,-1.754307 2.46866,3.114027 3.11285,8.101558 7.68678,12.531013 16.07677,15.568955 l 3.95343,1.431505 -2.23557,0.839179 c -8.58992,3.224438 -11.75731,5.4107 -14.82378,10.231973 -1.21771,1.914566 -2.73264,5.056029 -3.36649,6.981029 -0.63385,1.925 -1.25424,3.5 -1.37864,3.5 -0.1244,0 -0.73515,-1.575 -1.35722,-3.5 z M 79.692239,74.968295 c -0.18363,-0.311939 0.34876,-4.734111 1.18309,-9.827049 l 1.51697,-9.259886 20.236051,-20.292411 c 11.12983,-11.160826 20.92792,-20.567863 21.77352,-20.904526 2.28779,-0.910842 4.41245,0.480984 10.64605,6.974045 4.15825,4.331339 5.48315,6.155299 5.48315,7.548546 0,1.522967 -3.56295,5.388097 -20.83333,22.600206 l -20.833331,20.763044 -7.66667,1.136596 c -4.21667,0.625128 -8.45528,1.292297 -9.41915,1.482597 -0.96386,0.190301 -1.90272,0.09078 -2.08635,-0.221162 z"
       id="path1" />
  </g>
</svg>
