<?xml version="1.0" encoding="UTF-8" standalone="no"?>
<!-- Created with Inkscape (http://www.inkscape.org/) -->

<svg
   version="1.1"
   id="svg1"
   width="128"
   height="100"
   viewBox="0 0 128 100"
   xmlns="http://www.w3.org/2000/svg"
   xmlns:svg="http://www.w3.org/2000/svg">
  <defs
     id="defs1" />
  <g
     id="g1">
    <path
       style="fill:#000000"
       d="m 69.028248,81.361582 c 0,-9.836637 0.154205,-11.666667 0.983072,-11.666667 0.816934,0 1.014098,1.774475 1.166666,10.5 l 0.183596,10.5 18.166665,0.177381 c 15.536573,0.151701 18.166673,0.320607 18.166673,1.166667 0,0.85186 -2.68566,0.989285 -19.333333,0.989285 H 69.028248 Z m 4.666667,-4 c 0,-9.925926 0.149206,-11.666667 1,-11.666667 0.845878,0 1,1.592593 1,10.333333 v 10.333334 h 18.333332 c 17.888893,0 18.333343,0.03232 18.333343,1.333333 0,1.302682 -0.44445,1.333333 -19.333343,1.333333 H 73.694915 Z m 4,-4.666667 V 61.028248 H 97.361587 117.02825 V 72.694915 84.361582 H 97.361587 77.694915 Z M 114.36159,72.361582 V 63.028248 H 97.361587 80.361582 v 9.333334 9.333333 h 17.000005 17.000003 z m -12.66667,0.333333 v -7 h 5.33333 5.33334 v 7 7 h -5.33334 -5.33333 z m -14.500003,4.381117 c -2.405857,-2.65101 -2.879395,-3.381117 -2.192953,-3.381117 0.901937,0 0.90258,-1.819013 7.5e-4,-2.119623 -0.380711,-0.126903 0.354325,-1.373274 1.633413,-2.769712 1.79218,-1.9566 2.74197,-2.489857 4.14079,-2.324822 2.66473,0.314389 2.75832,1.749299 0.13059,2.002233 -2.67084,0.257084 -3.47292,2.280098 -1.08489,2.736329 1.36755,0.26127 1.33476,0.304131 -0.29437,0.384807 -1.14483,0.05669 -1.83333,0.466333 -1.83333,1.090788 0,0.624455 0.6885,1.034095 1.83333,1.090788 1.62913,0.08068 1.66192,0.123537 0.29437,0.384807 -2.36528,0.451886 -1.59086,2.47858 1.04442,2.733311 2.90458,0.280761 2.76561,1.457761 -0.17212,1.457761 -1.45664,0 -2.77168,-0.483017 -3.5,-1.28555 z M 39.028248,73.347289 c 0,-0.557861 -0.75,-1.356015 -1.666666,-1.773677 -1.564724,-0.712935 -1.666667,-1.068938 -1.666667,-5.820279 v -5.060895 l -3.134371,-2.332095 c -11.586889,-8.621097 -7.53635,-26.181804 6.777968,-29.385208 10.762504,-2.408542 21.438001,8.297163 19.158936,19.213149 -0.880125,4.215512 -3.937201,8.863081 -7.126502,10.834177 l -2.342698,1.447867 v 5.17195 c 0,4.8698 -0.09737,5.216314 -1.666666,5.931334 -0.916667,0.417662 -1.666667,1.215816 -1.666667,1.773677 0,0.772707 -0.793939,1.014293 -3.333333,1.014293 -2.539395,0 -3.333334,-0.241586 -3.333334,-1.014293 z M 35.38622,53.194915 c -2.282338,-5.89952 -0.191704,-11.828007 5.144078,-14.587246 2.302935,-1.190894 7.792774,-1.337065 9.80338,-0.261021 2.267723,1.213649 1.572073,-0.423065 -1.020187,-2.400278 -1.708099,-1.302831 -3.40359,-1.901167 -5.996634,-2.116202 -4.386279,-0.363745 -6.961983,0.603742 -9.596957,3.604812 -3.695224,4.208627 -4.025453,9.453064 -0.908407,14.426602 1.595541,2.545836 3.406645,3.483723 2.574727,1.333333 z m 24.779095,12.695939 c -3.498242,-2.591216 -3.771622,-3.415024 -1.742624,-5.251242 1.383291,-1.251861 1.415121,-1.238026 3.980106,1.730008 4.424865,5.120167 2.983498,7.388516 -2.237482,3.521234 z m -40.468597,0.637394 c 9.92e-4,-0.641666 1.167492,-2.516666 2.592223,-4.166666 2.576116,-2.983434 2.598194,-2.992987 3.998197,-1.730009 1.969017,1.776301 1.76791,2.427845 -1.511411,4.896675 -3.190719,2.402127 -5.081751,2.77445 -5.079009,1 z M 96.708587,48.349105 C 93.897087,39.75841 89.309977,34.905527 81.20819,31.950641 l -5.095266,-1.858347 1.957662,-0.835287 c 1.076714,-0.459408 2.344614,-0.848818 2.817554,-0.865356 1.566271,-0.05477 6.161137,-2.719203 8.798807,-5.102178 3.08362,-2.785871 5.384,-6.578094 7.01669,-11.567186 l 1.19097,-3.6392949 1.93644,5.0866549 c 3.103533,8.152377 8.409593,13.175368 16.435703,15.558865 1.88549,0.559931 3.42817,1.132325 3.42817,1.271986 0,0.13966 -1.575,0.769043 -3.5,1.398629 -7.88029,2.577306 -13.39919,7.528742 -15.82487,14.197725 -2.518593,6.924433 -2.339973,6.790164 -3.661463,2.752253 z M 14.361582,47.094786 c -2.387649,-0.318251 -3.041002,-0.687109 -3.200876,-1.807091 -0.166107,-1.16365 0.237762,-1.479705 2.333333,-1.825997 4.554567,-0.752638 6.078596,-0.535626 6.544363,0.931876 0.463232,1.459514 -0.683624,3.366582 -1.925117,3.201212 -0.413437,-0.05507 -2.101703,-0.280071 -3.751703,-0.5 z m 50.833333,0.139522 c -1.17562,-0.447447 -1.039038,-3.502303 0.177459,-3.969117 0.555935,-0.213332 2.655935,-0.18233 4.666666,0.06889 3.030788,0.378676 3.655875,0.680126 3.655875,1.763061 0,0.718458 -0.375,1.421388 -0.833333,1.562068 -1.616496,0.496164 -6.843815,0.88828 -7.666667,0.575098 z M 21.817156,27.547149 c -3.855889,-5.016957 -1.653916,-6.783829 3.203054,-2.570142 2.967979,2.574883 2.981846,2.606867 1.730008,3.990132 -1.783284,1.970507 -2.481749,1.769452 -4.933062,-1.41999 z m 36.011092,2.014433 c -0.44,-0.44 -0.8,-1.169915 -0.8,-1.622034 0,-1.305087 5.855077,-5.77623 6.992535,-5.339747 1.499951,0.575586 1.242029,1.653064 -1.159201,4.842592 -2.216598,2.944284 -3.618144,3.534378 -5.033334,2.119189 z m -16.9941,-6.949656 c -0.577294,-0.577294 -0.627617,-6.403905 -0.06791,-7.862486 0.222562,-0.579989 0.966847,-1.054525 1.653965,-1.054525 1.509958,0 2.108692,1.993006 1.818572,6.053475 -0.169594,2.373594 -0.475121,2.9844 -1.571297,3.141313 -0.748422,0.107134 -1.573422,-0.01787 -1.833333,-0.277777 z"
       id="path1" />
  </g>
</svg>
