<?xml version="1.0" encoding="UTF-8" standalone="no"?>
<!-- Created with Inkscape (http://www.inkscape.org/) -->

<svg
   version="1.1"
   id="svg1"
   width="101"
   height="111.41915"
   viewBox="0 0 101 111.41915"
   xmlns="http://www.w3.org/2000/svg"
   xmlns:svg="http://www.w3.org/2000/svg">
  <defs
     id="defs1" />
  <g
     id="g1"
     transform="translate(-11.903953,-10.710787)">
    <path
       style="fill:#000000"
       d="m 40.010851,121.62994 c -0.167818,-0.275 -0.635444,-1.7 -1.039169,-3.16666 -0.947874,-3.44348 -1.305004,-3.92732 -3.867955,-5.24032 -2.752595,-1.41015 -3.69598,-1.37713 -6.86644,0.24032 -1.437452,0.73333 -3.166651,1.33333 -3.842663,1.33333 -1.362694,0 -5.49067,-3.92491 -5.49067,-5.22057 0,-0.45306 0.743349,-2.29068 1.651886,-4.08359 l 1.651886,-3.25984 -1.326319,-2.99837 C 19.681136,96.52083 19.19152,96.11469 15.729521,94.96069 L 11.903954,93.6855 V 89.807215 85.92893 l 3.996362,-1.491219 c 3.497927,-1.305231 4.144663,-1.831307 5.185419,-4.217982 1.180639,-2.707456 1.177125,-2.750311 -0.496361,-6.052778 -0.926981,-1.829308 -1.68542,-3.725104 -1.68542,-4.212879 0,-0.487775 1.162166,-2.021689 2.582591,-3.408697 l 2.582591,-2.521833 3.899954,1.972044 3.899954,1.972043 2.837335,-1.378483 c 2.47381,-1.20187 2.995314,-1.853436 4.070367,-5.08551 l 1.233032,-3.707025 4.012042,-0.195838 4.012041,-0.195838 1.157461,3.195838 c 0.636603,1.757711 1.253016,3.518869 1.369806,3.913684 0.11679,0.394815 1.603754,1.24923 3.304366,1.8987 l 3.092021,1.180853 3.752199,-1.776582 3.752198,-1.776582 2.688019,2.688019 2.68802,2.688019 -1.8428,3.85653 -1.842799,3.85653 1.334987,2.980802 c 1.185584,2.64721 1.768557,3.142587 5.209131,4.426418 l 3.87415,1.445615 v 3.824491 3.824491 l -3.995253,1.416819 c -3.433675,1.21766 -4.167645,1.78293 -5.221721,4.02154 l -1.22647,2.60472 1.813732,4.26755 1.813733,4.26755 -2.222789,2.29333 c -2.629151,2.7126 -3.642696,2.80667 -7.816729,0.72548 l -3.144504,-1.56786 -2.870087,1.27578 c -1.578547,0.70168 -2.978461,1.63222 -3.110918,2.06786 -0.132457,0.43564 -0.756676,2.21708 -1.387152,3.95875 l -1.14632,3.16666 h -3.870083 c -2.128546,0 -4.007389,-0.225 -4.175208,-0.5 z m 8.515952,-22.84302 c 4.05299,-2.00822 5.37715,-4.22215 5.37715,-8.990309 0,-4.610271 -1.217884,-6.752579 -5.09077,-8.954878 -3.064706,-1.742731 -5.904059,-1.7483 -9.295274,-0.01823 -3.427048,1.748349 -5.274924,4.776781 -5.27813,8.650177 -0.0035,4.215678 1.828365,7.34802 5.354762,9.15626 3.607224,1.8497 5.450651,1.88209 8.932262,0.15698 z M 87.36417,80.963278 c -0.15682,-0.275 -0.64202,-1.607508 -1.07822,-2.961128 -1.04124,-3.231225 -4.23111,-4.501592 -7.30807,-2.910435 -2.70016,1.396304 -3.58376,1.312588 -5.2875,-0.500955 -1.402033,-1.492398 -1.412706,-1.623911 -0.35112,-4.326438 1.64758,-4.19435 0.70123,-6.75553 -2.94528,-7.971035 -2.685036,-0.895012 -2.823361,-1.070208 -2.823361,-3.575923 0,-2.467748 0.180927,-2.712357 2.853603,-3.858 4.020898,-1.723557 4.921008,-3.917549 3.084298,-7.517816 l -1.393123,-2.730741 1.968043,-1.968042 1.96804,-1.968043 2.80327,1.430122 c 2.73304,1.394293 2.8544,1.399996 4.8439,0.227611 1.23491,-0.727713 2.33637,-2.123801 2.78963,-3.535844 0.67799,-2.112099 1.00949,-2.352372 3.4963,-2.534128 2.64749,-0.1935 2.78618,-0.103597 3.81789,2.474894 0.64419,1.609991 1.82566,3.066151 2.96638,3.656038 1.73106,0.895167 2.13728,0.857709 4.67503,-0.431086 l 2.77925,-1.411436 1.67374,1.572402 c 1.95407,1.835746 2.05024,2.678148 0.62123,5.44155 -1.5455,2.988666 -0.25908,5.68812 3.50389,7.352662 2.68998,1.189908 2.88196,1.448608 2.88196,3.883539 0,2.477213 -0.13801,2.650059 -2.73796,3.429022 -3.74478,1.121965 -5.25017,4.033188 -3.66782,7.093105 1.44965,2.803326 1.3582,3.639235 -0.59935,5.478257 -1.64441,1.54485 -1.71142,1.551674 -4.09154,0.416678 -2.52908,-1.206034 -5.61988,-0.99846 -6.77038,0.454689 -0.34422,0.434764 -0.98821,1.915481 -1.4311,3.290481 -0.7468,2.318541 -0.9922,2.5 -3.38087,2.5 -1.41659,0 -2.70393,-0.225 -2.86076,-0.5 z M 94.43245,64.11952 c 0.93957,-0.739067 2.05388,-2.390852 2.47625,-3.670633 0.64535,-1.955445 0.57325,-2.724468 -0.45174,-4.817647 -1.52244,-3.109067 -3.75466,-4.31548 -7.21968,-3.901906 -1.88967,0.225546 -3.20084,0.916085 -4.5,2.369965 -2.55251,2.856519 -2.47226,5.923218 0.23573,9.007448 1.76065,2.005267 2.49255,2.356531 4.9101,2.356531 1.83891,0 3.4436,-0.473984 4.54934,-1.343758 z M 59.491806,50.963278 C 55.239176,40.087915 51.376953,36.056183 42.398103,33.11935 c -1.921782,-0.628583 -3.49415,-1.232119 -3.49415,-1.341192 0,-0.109073 2.084112,-0.994698 4.63136,-1.968056 7.661854,-2.927758 12.764462,-8.087551 15.08985,-15.258964 1.520295,-4.6885333 1.921497,-4.9105703 2.907796,-1.609258 2.694518,9.019014 8.213673,14.597985 17.364951,17.553153 l 3.66063,1.182104 -4.48771,1.513824 c -8.159932,2.752562 -13.697426,8.256772 -16.203038,16.10565 -0.614522,1.925 -1.239213,3.5 -1.388202,3.5 -0.148989,0 -0.593492,-0.825 -0.987784,-1.833333 z"
       id="path1" />
  </g>
</svg>
