<?xml version="1.0" encoding="UTF-8" standalone="no"?>
<!-- Created with Inkscape (http://www.inkscape.org/) -->

<svg
   version="1.1"
   id="svg1"
   width="163.64914"
   height="95.25946"
   viewBox="0 0 163.64914 95.25946"
   xmlns="http://www.w3.org/2000/svg"
   xmlns:svg="http://www.w3.org/2000/svg">
  <defs
     id="defs1" />
  <g
     id="g1"
     transform="translate(-7.1715847,-11.125812)">
    <path
       style="fill:#000000"
       d="m 109.68888,105.65988 c -4.50365,-1.29766 -9.01344,-4.12422 -10.180248,-6.380566 -1.46514,-2.83328 -1.31686,-9.81881 0.26344,-12.41036 2.881128,-4.72483 10.729888,-7.284375 20.732388,-6.760999 7.78617,0.407407 13.05005,2.239039 15.96024,5.553559 1.89984,2.1638 2.04022,2.67858 2.04022,7.48192 0,4.7552 -0.1573,5.34906 -2.01309,7.600466 -3.00648,3.64738 -7.98971,5.32299 -16.65358,5.59978 -4.55707,0.14559 -8.0991,-0.0931 -10.14937,-0.6838 z m 17.96554,-8.061586 c 4.03147,-1.19722 7.51716,-4.19684 7.51716,-6.46891 0,-2.21384 -3.19126,-5.07768 -6.903,-6.19475 -7.56004,-2.27524 -15.6964,-1.83466 -21.75675,1.17812 -7.160728,3.55982 -5.56299,8.68128 3.60357,11.55107 3.7996,1.18955 13.43393,1.15355 17.53902,-0.0655 z m -11.81617,-3.82616 c 0,-0.275 -0.4649,-0.5 -1.03311,-0.5 -2.29323,0 -4.96689,-2.00928 -4.96689,-3.73267 0,-1.18349 0.31386,-1.63308 1.03521,-1.48288 0.56937,0.11855 0.94437,0.39444 0.83334,0.61308 -0.11104,0.21865 0.20985,0.89365 0.71308,1.5 1.14207,1.37612 3.41837,1.44435 3.41837,0.10247 0,-0.55 0.45,-1 1,-1 0.55556,0 1,0.59259 1,1.33333 0,0.73333 0.41501,1.33333 0.92225,1.33333 0.50723,0 1.07915,-0.6 1.27092,-1.33333 0.412,-1.5755 1.80683,-1.79703 1.80683,-0.28697 0,1.71389 2.95978,0.90353 3.21303,-0.8797 0.23601,-1.66176 1.95583,-2.03767 2.5259,-0.55209 0.64367,1.67738 -0.99452,3.64376 -3.4137,4.0976 -1.27888,0.23992 -2.32523,0.62783 -2.32523,0.86202 0,0.23419 -1.35,0.42581 -3,0.42581 -1.65,0 -3,-0.225 -3,-0.5 z M 80.064615,79.105464 c 0.239926,-6.325 0.437146,-13.375 0.438267,-15.666666 l 0.002,-4.166667 h 24.378248 c 22.90159,0 24.35781,0.07067 24.04059,1.166667 -0.18572,0.641666 -0.66548,3.566666 -1.06612,6.5 -1.23642,9.052485 -0.62735,8.285373 -6.24127,7.860794 -13.34845,-1.009542 -26.251857,5.195522 -27.538697,13.242962 l -0.40983,2.56291 h -7.019727 -7.019728 z m 25.737035,-8.666666 c 0.50731,-1.191667 1.162,-2.687828 1.45485,-3.324802 0.82567,-1.795851 -2.0516,-4.820547 -3.99795,-4.2028 -2.33014,0.739557 -3.18881,3.264143 -1.82049,5.352456 0.61725,0.942044 0.9421,2.004333 0.72189,2.360643 -0.58155,0.940962 0.24356,1.981169 1.57149,1.981169 0.66133,0 1.53877,-0.918315 2.07021,-2.166666 z m -35.9085,15.818176 c -7.674605,-5.554086 -7.169071,-4.47898 -7.99497,-17.002688 -1.34932,-20.460697 -0.742995,-26.809073 3.038721,-31.816189 3.129499,-4.143561 3.279305,-4.166344 27.368247,-4.162248 13.929292,0.0024 22.834392,0.271683 24.533102,0.741948 5.86076,1.622471 11.05359,9.47046 12.08758,18.268102 l 0.42933,3.652899 H 104.93004 80.504921 v -2.929777 c 0,-4.957493 -2.339357,-11.238843 -5.335465,-14.326127 -3.661568,-3.772996 -5.319359,-3.805785 -2.646676,-0.05235 0.743157,1.043667 1.781344,2.927071 2.307083,4.185342 1.018527,2.437678 2.590812,11.096044 2.103447,11.583409 -0.160022,0.160022 -2.896275,-0.503725 -6.080564,-1.474992 -3.184288,-0.971268 -5.990212,-1.549272 -6.235387,-1.284454 -0.245175,0.264817 -0.145772,0.592107 0.220894,0.72731 0.366667,0.135202 3.216667,1.673069 6.333334,3.417481 4.899598,2.742327 5.648325,3.396082 5.531171,4.829574 -0.07452,0.911853 -0.332526,7.882915 -0.573339,15.491248 -0.240814,7.608332 -0.62984,13.810142 -0.864504,13.781802 -0.234664,-0.0283 -2.651958,-1.66197 -5.371765,-3.63029 z M 23.847121,54.868204 C 21.835332,54.327638 19.435332,53.405493 18.513787,52.818993 12.630077,49.074409 7.1715846,42.87575 7.1715846,39.938798 c 0,-3.704627 6.8746754,-10.623197 13.7132444,-13.800804 3.337353,-1.550732 4.836472,-1.836995 9.62009,-1.836995 4.762037,0 6.287764,0.288667 9.557263,1.808232 2.139828,0.994528 5.047996,2.724911 6.462597,3.845296 3.386324,2.682017 7.313582,8.091738 7.313055,10.073589 -6.11e-4,2.299259 -5.252386,8.618405 -9.513031,11.44646 -6.292264,4.176567 -13.263977,5.331941 -20.477682,3.393628 z m 15.934811,-5.296431 c 3.877537,-2.110419 9.389654,-7.765377 9.389654,-9.632975 0,-2.956883 -10.974129,-12.016314 -13.515893,-11.157724 -0.449592,0.15187 0.131071,0.768492 1.290362,1.370272 5.937012,3.081861 6.622077,10.099269 1.45554,14.90971 -3.237778,3.01462 -9.282037,3.919318 -13.076273,1.957242 -4.647436,-2.403283 -7.473143,-8.275783 -6.200287,-12.885689 0.372393,-1.348695 0.530337,-2.598914 0.350986,-2.778265 -0.607808,-0.607808 -7.637769,7.214103 -7.637769,8.498191 0,1.816258 5.678888,7.894982 8.924957,9.55334 4.316733,2.205341 5.758863,2.511489 10.786491,2.28985 3.668277,-0.161714 5.490993,-0.631982 8.232232,-2.123952 z m -6.658027,-8.608319 c 1.037358,-0.536438 2.07246,-1.460975 2.300227,-2.054525 1.389246,-3.620317 -1.197954,-7.636798 -4.919213,-7.636798 -1.298915,0 -2.665478,0.604872 -3.69697,1.636364 -1.031491,1.031491 -1.636363,2.398054 -1.636363,3.696969 0,2.411561 2.558087,5.333334 4.66947,5.333334 0.768209,0 2.245491,-0.438905 3.282849,-0.975344 z M 147.89878,53.062065 c -0.39996,-1.032204 -0.7272,-2.19021 -0.7272,-2.573349 0,-1.622651 -4.39676,-8.76016 -6.57382,-10.671639 -2.05197,-1.801655 -6.08931,-3.92565 -12.09284,-6.36189 -1.57712,-0.639999 -1.47353,-0.734303 1.92817,-1.755259 8.98671,-2.697195 13.4046,-7.334443 17.467,-18.33429 l 0.8272,-2.239826 1.62765,4.573159 c 3.07363,8.635889 7.70659,13.02412 17.13343,16.228401 l 3.33236,1.132706 -3.6579,1.196345 c -5.02873,1.644681 -6.97645,2.704668 -10.01651,5.451179 -3.2228,2.911603 -5.11873,5.922496 -7.03995,11.18 -1.47019,4.023259 -1.48541,4.038254 -2.20759,2.174463 z"
       id="path1" />
  </g>
</svg>
