<?xml version="1.0" encoding="UTF-8" standalone="no"?>
<!-- Created with Inkscape (http://www.inkscape.org/) -->

<svg
   width="71.774979mm"
   height="72.058495mm"
   viewBox="0 0 71.774979 72.058495"
   version="1.1"
   id="svg1"
   xml:space="preserve"
   xmlns="http://www.w3.org/2000/svg"
   xmlns:svg="http://www.w3.org/2000/svg"><defs
     id="defs1" /><g
     id="layer1"
     transform="translate(-66.266252,-117.26547)"><path
       style="fill:#000000"
       d="m 67.092344,188.6854 -0.742358,-0.6385 -0.06989,-26.45421 c -0.04572,-17.30352 0.02234,-26.6968 0.196754,-27.15554 0.55148,-1.4505 0.97297,-1.4917 14.433649,-1.41095 l 12.29216,0.0738 8.997101,8.99437 8.9971,8.99438 v 18.46817 18.46818 l -0.64943,0.64943 -0.64943,0.64943 H 88.866349 67.834703 Z M 105.90519,168.72583 V 153.684 l 1.77252,-0.52832 c 3.37325,-1.00544 2.61373,-1.13802 -6.51952,-1.13802 h -8.495261 l -0.25803,-0.67868 c -0.1468,-0.38611 -0.25804,-4.09311 -0.25804,-8.59896 0,-4.36462 -0.10419,-7.92028 -0.23209,-7.92028 -0.12765,0 -0.44826,0.83344 -0.71246,1.85208 l -0.48037,1.85209 h -9.474 -9.473995 v 22.62187 22.62188 h 17.065625 17.065621 z m 15.24053,-22.67982 c -1.32344,-3.84158 -2.26243,-5.43607 -4.50764,-7.65439 -2.16496,-2.13905 -3.69453,-3.02888 -7.52096,-4.37534 l -2.74937,-0.96747 3.00987,-1.02827 c 6.42118,-2.19371 9.48142,-5.35032 11.8991,-12.27383 l 0.86644,-2.48124 0.85254,2.54292 c 1.26461,3.77204 2.33718,5.61462 4.59642,7.89627 2.19672,2.2185 4.72003,3.63622 8.47015,4.75896 l 1.97896,0.59247 -2.62197,0.87904 c -3.17964,1.066 -4.87792,1.92402 -6.63768,3.35352 -2.73439,2.22121 -4.30646,4.70172 -5.80171,9.15424 l -0.83788,2.49502 z"
       id="path1" /></g></svg>
