<?xml version="1.0" encoding="UTF-8" standalone="no"?>
<!-- Created with Inkscape (http://www.inkscape.org/) -->

<svg
   version="1.1"
   id="svg1"
   width="185.33333"
   height="162.66667"
   viewBox="0 0 185.33333 162.66667"
   xmlns="http://www.w3.org/2000/svg"
   xmlns:svg="http://www.w3.org/2000/svg">
  <defs
     id="defs1" />
  <g
     id="g1">
    <path
       style="fill:#000000"
       d="M 20.741162,157.44692 C 18.900367,155.10889 4.5260317,126.13446 4.8229957,125.36058 c 0.570087,-1.48562 11.6827353,-8.9403 17.4425413,-11.70096 10.850452,-5.20058 18.247554,-5.71727 39.087614,-2.7303 13.752779,1.97115 23.086797,2.98874 34.579047,3.76977 7.516592,0.51084 10.416962,1.54036 11.365112,4.0342 1.69747,4.46468 -1.80545,8.87747 -8.686892,10.9433 -8.68075,2.60599 -24.541608,2.87293 -38.272897,0.64415 -5.103929,-0.82844 -5.91695,-0.83219 -5.418048,-0.025 0.610279,0.98746 10.135626,3.82113 17.111718,5.09053 9.235607,1.68055 26.368057,1.68095 31.195439,7.2e-4 6.51356,-2.26711 11.37224,-8.62557 11.37224,-14.88261 0,-1.95879 0.18912,-2.06555 11.83334,-6.68029 16.22759,-6.43119 18.51769,-7.12673 23.54884,-7.15222 4.89274,-0.0248 8.19388,1.61821 10.25211,5.10251 l 1.09419,1.85232 -3.86424,2.47338 c -23.8867,15.28918 -58.565312,36.64409 -61.197572,37.68514 -6.65761,2.63306 -10.88017,2.37588 -29.666669,-1.80693 -11.934344,-2.65718 -17.794612,-3.67705 -19.666666,-3.42261 -1.466667,0.19934 -7.166667,2.20658 -12.666667,4.46054 -5.5,2.25397 -10.651761,4.35231 -11.448358,4.66298 -0.946555,0.36917 -1.66582,0.28867 -2.076016,-0.23233 z M 46.926593,101.40139 C 46.022566,100.02167 45.914204,96.205399 46.077891,71.511773 L 46.265536,43.203822 60.050093,29.42677 73.83465,15.649718 h 20.248778 c 14.860162,0 20.461672,0.212897 21.048782,0.8 1.15611,1.156117 1.15611,84.577222 0,85.733342 -0.6008,0.60079 -9.06325,0.8 -33.984642,0.8 H 47.96294 Z m 60.844787,-42.25167 0.17251,-35.500002 h -14.926702 -14.9267 l -0.912476,-3.166666 c -0.860643,-2.986781 -0.922785,-2.431056 -1.093945,9.78286 -0.114577,8.176152 -0.451845,13.27531 -0.914964,13.833334 -0.563429,0.678891 -3.759604,0.883806 -13.785197,0.883806 -12.658383,0 -14.906732,0.433735 -9.451703,1.823351 l 2.333333,0.594395 0.175096,23.79877 0.175096,23.798771 26.49157,-0.17431 26.491572,-0.17431 z M 61.932202,81.316389 v -2.33333 h 4.333333 4.333334 v 2.33333 2.33333 h -4.333334 -4.333333 z m 12.666667,0 v -2.33333 h 12.999999 13.000002 v 2.33333 2.33333 H 87.598868 74.598869 Z M 61.932202,70.64972 v -2.333333 h 4.333333 4.333334 v 2.333333 2.333333 h -4.333334 -4.333333 z m 12.666667,0 v -2.333333 h 12.999999 13.000002 v 2.333333 2.333333 H 87.598868 74.598869 Z M 61.932202,59.983053 V 57.64972 h 4.333333 4.333334 v 2.333333 2.333333 h -4.333334 -4.333333 z m 12.666667,0 V 57.64972 h 12.999999 13.000002 v 2.333333 2.333333 H 87.598868 74.598869 Z m 8.666669,-17.333334 v -2.333333 h 8.66666 8.666672 v 2.333333 2.333333 h -8.666672 -8.66666 z m 74.458822,40.78662 c -2.41043,-7.64678 -7.63356,-12.903446 -15.72941,-15.830409 -3.92231,-1.418064 -4.13979,-1.595837 -2.66667,-2.179793 4.17929,-1.656704 9.74108,-4.483666 10.99592,-5.589039 2.88126,-2.538056 6.15846,-7.545781 7.28772,-11.135973 0.64321,-2.04494 1.36628,-3.718073 1.60682,-3.718073 0.24054,0 1.00845,1.680136 1.70645,3.733636 2.85587,8.401824 7.39247,12.564089 17.90478,16.427375 l 2.56443,0.942431 -4.49223,1.474694 c -8.00753,2.628687 -13.29751,7.868071 -16.07562,15.921871 -0.66402,1.925 -1.3821,3.5 -1.59574,3.5 -0.21364,0 -0.89154,-1.59603 -1.50645,-3.54672 z"
       id="path1" />
  </g>
</svg>
